G04 EAGLE Gerber RS-274X export*
G75*
%MOMM*%
%FSLAX34Y34*%
%LPD*%
%INBottom Copper*%
%IPPOS*%
%AMOC8*
5,1,8,0,0,1.08239X$1,22.5*%
G01*
%ADD10C,1.524000*%
%ADD11C,0.152400*%
%ADD12C,0.756400*%


D10*
X658900Y1127620D02*
X658900Y1112380D01*
X633500Y1112380D02*
X633500Y1127620D01*
X608100Y1127620D02*
X608100Y1112380D01*
X582700Y1112380D02*
X582700Y1127620D01*
X557300Y1127620D02*
X557300Y1112380D01*
X531900Y1112380D02*
X531900Y1127620D01*
X506500Y1127620D02*
X506500Y1112380D01*
X481100Y1112380D02*
X481100Y1127620D01*
X130300Y1127620D02*
X130300Y1112380D01*
X155700Y1112380D02*
X155700Y1127620D01*
X181100Y1127620D02*
X181100Y1112380D01*
X206500Y1112380D02*
X206500Y1127620D01*
X231900Y1127620D02*
X231900Y1112380D01*
X257300Y1112380D02*
X257300Y1127620D01*
X282700Y1127620D02*
X282700Y1112380D01*
X308100Y1112380D02*
X308100Y1127620D01*
X333500Y1127620D02*
X333500Y1112380D01*
X358900Y1112380D02*
X358900Y1127620D01*
X384300Y1127620D02*
X384300Y1112380D01*
X409700Y1112380D02*
X409700Y1127620D01*
D11*
X240792Y1030224D02*
X182880Y1030224D01*
X164592Y1011936D02*
X76200Y1011936D01*
X164592Y1011936D02*
X182880Y1030224D01*
D12*
X182880Y1030224D03*
X240792Y1030224D03*
X76200Y1011936D03*
D11*
X182880Y938784D02*
X240792Y938784D01*
X417576Y938784D01*
X507492Y938784D01*
X597408Y938784D01*
X687324Y938784D01*
X166116Y922020D02*
X73152Y922020D01*
X166116Y922020D02*
X182880Y938784D01*
D12*
X182880Y938784D03*
X240792Y938784D03*
X417576Y938784D03*
X507492Y938784D03*
X597408Y938784D03*
X687324Y938784D03*
X73152Y922020D03*
D11*
X182880Y757428D02*
X240792Y757428D01*
X326136Y757428D01*
X417576Y757428D01*
X507492Y757428D01*
X597408Y757428D01*
X687324Y757428D01*
X166116Y774192D02*
X76200Y774192D01*
X166116Y774192D02*
X182880Y757428D01*
D12*
X182880Y757428D03*
X240792Y757428D03*
X326136Y757428D03*
X417576Y757428D03*
X507492Y757428D03*
X597408Y757428D03*
X687324Y757428D03*
X76200Y774192D03*
D11*
X182880Y580644D02*
X240792Y580644D01*
X326136Y580644D01*
X417576Y580644D01*
X507492Y580644D01*
X597408Y580644D01*
X687324Y580644D01*
X166116Y563880D02*
X76200Y563880D01*
X166116Y563880D02*
X182880Y580644D01*
D12*
X182880Y580644D03*
X240792Y580644D03*
X326136Y580644D03*
X417576Y580644D03*
X507492Y580644D03*
X597408Y580644D03*
X687324Y580644D03*
X76200Y563880D03*
D11*
X182880Y847344D02*
X240792Y847344D01*
X326136Y847344D01*
X417576Y847344D01*
X507492Y847344D01*
X597408Y847344D01*
X687324Y847344D01*
X169164Y861060D02*
X85344Y861060D01*
X169164Y861060D02*
X182880Y847344D01*
D12*
X182880Y847344D03*
X240792Y847344D03*
X326136Y847344D03*
X417576Y847344D03*
X507492Y847344D03*
X597408Y847344D03*
X687324Y847344D03*
X85344Y861060D03*
D11*
X182880Y665988D02*
X240792Y665988D01*
X326136Y665988D01*
X417576Y665988D01*
X507492Y665988D01*
X597408Y665988D01*
X687324Y665988D01*
X166116Y682752D02*
X76200Y682752D01*
X166116Y682752D02*
X182880Y665988D01*
D12*
X182880Y665988D03*
X240792Y665988D03*
X326136Y665988D03*
X417576Y665988D03*
X507492Y665988D03*
X597408Y665988D03*
X687324Y665988D03*
X76200Y682752D03*
D11*
X182880Y489204D02*
X240792Y489204D01*
X326136Y489204D01*
X417576Y489204D01*
X507492Y489204D01*
X597408Y489204D01*
X687324Y489204D01*
X166116Y505968D02*
X76200Y505968D01*
X166116Y505968D02*
X182880Y489204D01*
D12*
X182880Y489204D03*
X240792Y489204D03*
X326136Y489204D03*
X417576Y489204D03*
X507492Y489204D03*
X597408Y489204D03*
X687324Y489204D03*
X76200Y505968D03*
D11*
X182880Y403860D02*
X240792Y403860D01*
X326136Y403860D01*
X417576Y403860D01*
X507492Y403860D01*
X597408Y403860D01*
X687324Y403860D01*
X182880Y403860D02*
X89916Y403860D01*
D12*
X182880Y403860D03*
X240792Y403860D03*
X326136Y403860D03*
X417576Y403860D03*
X507492Y403860D03*
X597408Y403860D03*
X687324Y403860D03*
X89916Y403860D03*
D11*
X182880Y313944D02*
X240792Y313944D01*
X326136Y313944D01*
X417576Y313944D01*
X507492Y313944D01*
X597408Y313944D01*
X687324Y313944D01*
X182880Y313944D02*
X89916Y313944D01*
D12*
X182880Y313944D03*
X240792Y313944D03*
X326136Y313944D03*
X417576Y313944D03*
X507492Y313944D03*
X597408Y313944D03*
X687324Y313944D03*
X89916Y313944D03*
D11*
X182880Y222504D02*
X240792Y222504D01*
X326136Y222504D01*
X417576Y222504D01*
X507492Y222504D01*
X597408Y222504D01*
X687324Y222504D01*
X182880Y222504D02*
X89916Y222504D01*
D12*
X182880Y222504D03*
X240792Y222504D03*
X326136Y222504D03*
X417576Y222504D03*
X507492Y222504D03*
X597408Y222504D03*
X687324Y222504D03*
X89916Y222504D03*
D11*
X94488Y1048512D02*
X135636Y1048512D01*
X94488Y1048512D02*
X48768Y1002792D01*
X48768Y833628D01*
D12*
X135636Y1048512D03*
X48768Y833628D03*
D11*
X85344Y1077468D02*
X190500Y1077468D01*
X85344Y1077468D02*
X42672Y1034796D01*
X42672Y743712D01*
D12*
X190500Y1077468D03*
X42672Y743712D03*
D11*
X85344Y1083564D02*
X220980Y1083564D01*
X85344Y1083564D02*
X24384Y1022604D01*
X24384Y656844D01*
X27432Y653796D01*
D12*
X220980Y1083564D03*
X27432Y653796D03*
D11*
X423672Y1045464D02*
X423672Y1127760D01*
X423672Y1045464D02*
X400812Y1022604D01*
X216408Y1022604D01*
X121920Y928116D01*
D12*
X423672Y1127760D03*
X121920Y928116D03*
D11*
X92964Y1095756D02*
X309372Y1095756D01*
X92964Y1095756D02*
X21336Y1024128D01*
X21336Y387096D01*
D12*
X309372Y1095756D03*
X21336Y387096D03*
D11*
X355092Y1120140D02*
X358140Y1120140D01*
X355092Y1120140D02*
X336804Y1138428D01*
X117348Y1138428D01*
X25908Y1046988D01*
X358140Y1120140D02*
X358900Y1120000D01*
D12*
X25908Y1046988D03*
D11*
X379476Y1118616D02*
X384048Y1118616D01*
X379476Y1118616D02*
X362712Y1101852D01*
X94488Y1101852D01*
X15240Y1022604D01*
X15240Y213360D01*
X25908Y202692D01*
X384048Y1118616D02*
X384300Y1120000D01*
D12*
X25908Y202692D03*
D11*
X405384Y1118616D02*
X408432Y1118616D01*
X405384Y1118616D02*
X329184Y1042416D01*
X92964Y1042416D01*
X54864Y1004316D01*
X54864Y112776D01*
X408432Y1118616D02*
X409700Y1120000D01*
D12*
X54864Y112776D03*
D11*
X527304Y1118616D02*
X531876Y1118616D01*
X527304Y1118616D02*
X425196Y1016508D01*
X320040Y1016508D01*
X531876Y1118616D02*
X531900Y1120000D01*
D12*
X320040Y1016508D03*
M02*
