G04 EAGLE Gerber RS-274X export*
G75*
%MOMM*%
%FSLAX34Y34*%
%LPD*%
%INSoldermask Top*%
%IPPOS*%
%AMOC8*
5,1,8,0,0,1.08239X$1,22.5*%
G01*
%ADD10R,1.703200X2.403200*%
%ADD11R,3.403200X2.003200*%
%ADD12C,1.727200*%
%ADD13C,0.959600*%


D10*
X103500Y1029300D03*
X72500Y1029300D03*
X103500Y222100D03*
X72500Y222100D03*
X103500Y131300D03*
X72500Y131300D03*
X103500Y40500D03*
X72500Y40500D03*
X103500Y938500D03*
X72500Y938500D03*
X103500Y847700D03*
X72500Y847700D03*
X103500Y756900D03*
X72500Y756900D03*
X103500Y666100D03*
X72500Y666100D03*
X103500Y580300D03*
X72500Y580300D03*
X103500Y489500D03*
X72500Y489500D03*
X103500Y403700D03*
X72500Y403700D03*
X103500Y312900D03*
X72500Y312900D03*
X197000Y1029300D03*
X166000Y1029300D03*
X197000Y222100D03*
X166000Y222100D03*
X197000Y131300D03*
X166000Y131300D03*
X197000Y40500D03*
X166000Y40500D03*
X197000Y938500D03*
X166000Y938500D03*
X197000Y847700D03*
X166000Y847700D03*
X197000Y756900D03*
X166000Y756900D03*
X197000Y666100D03*
X166000Y666100D03*
X197000Y580300D03*
X166000Y580300D03*
X197000Y489500D03*
X166000Y489500D03*
X197000Y403700D03*
X166000Y403700D03*
X197000Y312900D03*
X166000Y312900D03*
X285500Y1029300D03*
X254500Y1029300D03*
X285500Y222100D03*
X254500Y222100D03*
X285500Y131300D03*
X254500Y131300D03*
X285500Y40500D03*
X254500Y40500D03*
X285500Y938500D03*
X254500Y938500D03*
X285500Y847700D03*
X254500Y847700D03*
X285500Y756900D03*
X254500Y756900D03*
X285500Y666100D03*
X254500Y666100D03*
X285500Y580300D03*
X254500Y580300D03*
X285500Y489500D03*
X254500Y489500D03*
X285500Y403700D03*
X254500Y403700D03*
X285500Y312900D03*
X254500Y312900D03*
X374000Y1029300D03*
X343000Y1029300D03*
X374000Y222100D03*
X343000Y222100D03*
X374000Y131300D03*
X343000Y131300D03*
X374000Y40500D03*
X343000Y40500D03*
X374000Y938500D03*
X343000Y938500D03*
X374000Y847700D03*
X343000Y847700D03*
X374000Y756900D03*
X343000Y756900D03*
X374000Y666100D03*
X343000Y666100D03*
X374000Y580300D03*
X343000Y580300D03*
X374000Y489500D03*
X343000Y489500D03*
X374000Y403700D03*
X343000Y403700D03*
X374000Y312900D03*
X343000Y312900D03*
X467500Y1029300D03*
X436500Y1029300D03*
X467500Y222100D03*
X436500Y222100D03*
X467500Y131300D03*
X436500Y131300D03*
X467500Y40500D03*
X436500Y40500D03*
X467500Y938500D03*
X436500Y938500D03*
X467500Y847700D03*
X436500Y847700D03*
X467500Y756900D03*
X436500Y756900D03*
X467500Y666100D03*
X436500Y666100D03*
X467500Y580300D03*
X436500Y580300D03*
X467500Y489500D03*
X436500Y489500D03*
X467500Y403700D03*
X436500Y403700D03*
X467500Y312900D03*
X436500Y312900D03*
X556000Y1029300D03*
X525000Y1029300D03*
X556000Y222100D03*
X525000Y222100D03*
X556000Y131300D03*
X525000Y131300D03*
X556000Y40500D03*
X525000Y40500D03*
X556000Y938500D03*
X525000Y938500D03*
X556000Y847700D03*
X525000Y847700D03*
X556000Y756900D03*
X525000Y756900D03*
X556000Y666100D03*
X525000Y666100D03*
X556000Y580300D03*
X525000Y580300D03*
X556000Y489500D03*
X525000Y489500D03*
X556000Y403700D03*
X525000Y403700D03*
X556000Y312900D03*
X525000Y312900D03*
X644500Y1029300D03*
X613500Y1029300D03*
X644500Y222100D03*
X613500Y222100D03*
X644500Y131300D03*
X613500Y131300D03*
X644500Y40500D03*
X613500Y40500D03*
X644500Y938500D03*
X613500Y938500D03*
X644500Y847700D03*
X613500Y847700D03*
X644500Y756900D03*
X613500Y756900D03*
X644500Y666100D03*
X613500Y666100D03*
X644500Y580300D03*
X613500Y580300D03*
X644500Y489500D03*
X613500Y489500D03*
X644500Y403700D03*
X613500Y403700D03*
X644500Y312900D03*
X613500Y312900D03*
X738000Y1029300D03*
X707000Y1029300D03*
X738000Y222100D03*
X707000Y222100D03*
X738000Y131300D03*
X707000Y131300D03*
X738000Y40500D03*
X707000Y40500D03*
X738000Y938500D03*
X707000Y938500D03*
X738000Y847700D03*
X707000Y847700D03*
X738000Y756900D03*
X707000Y756900D03*
X738000Y666100D03*
X707000Y666100D03*
X738000Y580300D03*
X707000Y580300D03*
X738000Y489500D03*
X707000Y489500D03*
X738000Y403700D03*
X707000Y403700D03*
X738000Y312900D03*
X707000Y312900D03*
D11*
X40000Y1088000D03*
X40000Y1032000D03*
X40000Y278000D03*
X40000Y222000D03*
X40000Y188000D03*
X40000Y132000D03*
X40000Y98000D03*
X40000Y42000D03*
X40000Y998000D03*
X40000Y942000D03*
X40000Y908000D03*
X40000Y852000D03*
X40000Y818000D03*
X40000Y762000D03*
X40000Y728000D03*
X40000Y672000D03*
X40000Y638000D03*
X40000Y582000D03*
X40000Y548000D03*
X40000Y492000D03*
X40000Y458000D03*
X40000Y402000D03*
X40000Y368000D03*
X40000Y312000D03*
D12*
X658900Y1112380D02*
X658900Y1127620D01*
X633500Y1127620D02*
X633500Y1112380D01*
X608100Y1112380D02*
X608100Y1127620D01*
X582700Y1127620D02*
X582700Y1112380D01*
X557300Y1112380D02*
X557300Y1127620D01*
X531900Y1127620D02*
X531900Y1112380D01*
X506500Y1112380D02*
X506500Y1127620D01*
X481100Y1127620D02*
X481100Y1112380D01*
X130300Y1112380D02*
X130300Y1127620D01*
X155700Y1127620D02*
X155700Y1112380D01*
X181100Y1112380D02*
X181100Y1127620D01*
X206500Y1127620D02*
X206500Y1112380D01*
X231900Y1112380D02*
X231900Y1127620D01*
X257300Y1127620D02*
X257300Y1112380D01*
X282700Y1112380D02*
X282700Y1127620D01*
X308100Y1127620D02*
X308100Y1112380D01*
X333500Y1112380D02*
X333500Y1127620D01*
X358900Y1127620D02*
X358900Y1112380D01*
X384300Y1112380D02*
X384300Y1127620D01*
X409700Y1127620D02*
X409700Y1112380D01*
D13*
X182880Y1030224D03*
X240792Y1030224D03*
X76200Y1011936D03*
X182880Y938784D03*
X240792Y938784D03*
X417576Y938784D03*
X507492Y938784D03*
X597408Y938784D03*
X687324Y938784D03*
X73152Y922020D03*
X182880Y757428D03*
X240792Y757428D03*
X326136Y757428D03*
X417576Y757428D03*
X507492Y757428D03*
X597408Y757428D03*
X687324Y757428D03*
X76200Y774192D03*
X182880Y580644D03*
X240792Y580644D03*
X326136Y580644D03*
X417576Y580644D03*
X507492Y580644D03*
X597408Y580644D03*
X687324Y580644D03*
X76200Y563880D03*
X182880Y847344D03*
X240792Y847344D03*
X326136Y847344D03*
X417576Y847344D03*
X507492Y847344D03*
X597408Y847344D03*
X687324Y847344D03*
X85344Y861060D03*
X182880Y665988D03*
X240792Y665988D03*
X326136Y665988D03*
X417576Y665988D03*
X507492Y665988D03*
X597408Y665988D03*
X687324Y665988D03*
X76200Y682752D03*
X182880Y489204D03*
X240792Y489204D03*
X326136Y489204D03*
X417576Y489204D03*
X507492Y489204D03*
X597408Y489204D03*
X687324Y489204D03*
X76200Y505968D03*
X182880Y403860D03*
X240792Y403860D03*
X326136Y403860D03*
X417576Y403860D03*
X507492Y403860D03*
X597408Y403860D03*
X687324Y403860D03*
X89916Y403860D03*
X182880Y313944D03*
X240792Y313944D03*
X326136Y313944D03*
X417576Y313944D03*
X507492Y313944D03*
X597408Y313944D03*
X687324Y313944D03*
X89916Y313944D03*
X182880Y222504D03*
X240792Y222504D03*
X326136Y222504D03*
X417576Y222504D03*
X507492Y222504D03*
X597408Y222504D03*
X687324Y222504D03*
X89916Y222504D03*
X135636Y1048512D03*
X48768Y833628D03*
X190500Y1077468D03*
X42672Y743712D03*
X220980Y1083564D03*
X27432Y653796D03*
X423672Y1127760D03*
X121920Y928116D03*
X309372Y1095756D03*
X21336Y387096D03*
X25908Y1046988D03*
X25908Y202692D03*
X54864Y112776D03*
X320040Y1016508D03*
M02*
