G04 EAGLE Gerber RS-274X export*
G75*
%MOMM*%
%FSLAX34Y34*%
%LPD*%
%INSoldermask Bottom*%
%IPPOS*%
%AMOC8*
5,1,8,0,0,1.08239X$1,22.5*%
G01*
%ADD10C,1.727200*%
%ADD11C,0.959600*%


D10*
X658900Y1127620D02*
X658900Y1112380D01*
X633500Y1112380D02*
X633500Y1127620D01*
X608100Y1127620D02*
X608100Y1112380D01*
X582700Y1112380D02*
X582700Y1127620D01*
X557300Y1127620D02*
X557300Y1112380D01*
X531900Y1112380D02*
X531900Y1127620D01*
X506500Y1127620D02*
X506500Y1112380D01*
X481100Y1112380D02*
X481100Y1127620D01*
X130300Y1127620D02*
X130300Y1112380D01*
X155700Y1112380D02*
X155700Y1127620D01*
X181100Y1127620D02*
X181100Y1112380D01*
X206500Y1112380D02*
X206500Y1127620D01*
X231900Y1127620D02*
X231900Y1112380D01*
X257300Y1112380D02*
X257300Y1127620D01*
X282700Y1127620D02*
X282700Y1112380D01*
X308100Y1112380D02*
X308100Y1127620D01*
X333500Y1127620D02*
X333500Y1112380D01*
X358900Y1112380D02*
X358900Y1127620D01*
X384300Y1127620D02*
X384300Y1112380D01*
X409700Y1112380D02*
X409700Y1127620D01*
D11*
X182880Y1030224D03*
X240792Y1030224D03*
X76200Y1011936D03*
X182880Y938784D03*
X240792Y938784D03*
X417576Y938784D03*
X507492Y938784D03*
X597408Y938784D03*
X687324Y938784D03*
X73152Y922020D03*
X182880Y757428D03*
X240792Y757428D03*
X326136Y757428D03*
X417576Y757428D03*
X507492Y757428D03*
X597408Y757428D03*
X687324Y757428D03*
X76200Y774192D03*
X182880Y580644D03*
X240792Y580644D03*
X326136Y580644D03*
X417576Y580644D03*
X507492Y580644D03*
X597408Y580644D03*
X687324Y580644D03*
X76200Y563880D03*
X182880Y847344D03*
X240792Y847344D03*
X326136Y847344D03*
X417576Y847344D03*
X507492Y847344D03*
X597408Y847344D03*
X687324Y847344D03*
X85344Y861060D03*
X182880Y665988D03*
X240792Y665988D03*
X326136Y665988D03*
X417576Y665988D03*
X507492Y665988D03*
X597408Y665988D03*
X687324Y665988D03*
X76200Y682752D03*
X182880Y489204D03*
X240792Y489204D03*
X326136Y489204D03*
X417576Y489204D03*
X507492Y489204D03*
X597408Y489204D03*
X687324Y489204D03*
X76200Y505968D03*
X182880Y403860D03*
X240792Y403860D03*
X326136Y403860D03*
X417576Y403860D03*
X507492Y403860D03*
X597408Y403860D03*
X687324Y403860D03*
X89916Y403860D03*
X182880Y313944D03*
X240792Y313944D03*
X326136Y313944D03*
X417576Y313944D03*
X507492Y313944D03*
X597408Y313944D03*
X687324Y313944D03*
X89916Y313944D03*
X182880Y222504D03*
X240792Y222504D03*
X326136Y222504D03*
X417576Y222504D03*
X507492Y222504D03*
X597408Y222504D03*
X687324Y222504D03*
X89916Y222504D03*
X135636Y1048512D03*
X48768Y833628D03*
X190500Y1077468D03*
X42672Y743712D03*
X220980Y1083564D03*
X27432Y653796D03*
X423672Y1127760D03*
X121920Y928116D03*
X309372Y1095756D03*
X21336Y387096D03*
X25908Y1046988D03*
X25908Y202692D03*
X54864Y112776D03*
X320040Y1016508D03*
M02*
