G04 EAGLE Gerber RS-274X export*
G75*
%MOMM*%
%FSLAX34Y34*%
%LPD*%
%INSolderpaste Top*%
%IPPOS*%
%AMOC8*
5,1,8,0,0,1.08239X$1,22.5*%
G01*
%ADD10R,1.500000X2.200000*%
%ADD11R,3.200000X1.800000*%


D10*
X103500Y1029300D03*
X72500Y1029300D03*
X103500Y222100D03*
X72500Y222100D03*
X103500Y131300D03*
X72500Y131300D03*
X103500Y40500D03*
X72500Y40500D03*
X103500Y938500D03*
X72500Y938500D03*
X103500Y847700D03*
X72500Y847700D03*
X103500Y756900D03*
X72500Y756900D03*
X103500Y666100D03*
X72500Y666100D03*
X103500Y580300D03*
X72500Y580300D03*
X103500Y489500D03*
X72500Y489500D03*
X103500Y403700D03*
X72500Y403700D03*
X103500Y312900D03*
X72500Y312900D03*
X197000Y1029300D03*
X166000Y1029300D03*
X197000Y222100D03*
X166000Y222100D03*
X197000Y131300D03*
X166000Y131300D03*
X197000Y40500D03*
X166000Y40500D03*
X197000Y938500D03*
X166000Y938500D03*
X197000Y847700D03*
X166000Y847700D03*
X197000Y756900D03*
X166000Y756900D03*
X197000Y666100D03*
X166000Y666100D03*
X197000Y580300D03*
X166000Y580300D03*
X197000Y489500D03*
X166000Y489500D03*
X197000Y403700D03*
X166000Y403700D03*
X197000Y312900D03*
X166000Y312900D03*
X285500Y1029300D03*
X254500Y1029300D03*
X285500Y222100D03*
X254500Y222100D03*
X285500Y131300D03*
X254500Y131300D03*
X285500Y40500D03*
X254500Y40500D03*
X285500Y938500D03*
X254500Y938500D03*
X285500Y847700D03*
X254500Y847700D03*
X285500Y756900D03*
X254500Y756900D03*
X285500Y666100D03*
X254500Y666100D03*
X285500Y580300D03*
X254500Y580300D03*
X285500Y489500D03*
X254500Y489500D03*
X285500Y403700D03*
X254500Y403700D03*
X285500Y312900D03*
X254500Y312900D03*
X374000Y1029300D03*
X343000Y1029300D03*
X374000Y222100D03*
X343000Y222100D03*
X374000Y131300D03*
X343000Y131300D03*
X374000Y40500D03*
X343000Y40500D03*
X374000Y938500D03*
X343000Y938500D03*
X374000Y847700D03*
X343000Y847700D03*
X374000Y756900D03*
X343000Y756900D03*
X374000Y666100D03*
X343000Y666100D03*
X374000Y580300D03*
X343000Y580300D03*
X374000Y489500D03*
X343000Y489500D03*
X374000Y403700D03*
X343000Y403700D03*
X374000Y312900D03*
X343000Y312900D03*
X467500Y1029300D03*
X436500Y1029300D03*
X467500Y222100D03*
X436500Y222100D03*
X467500Y131300D03*
X436500Y131300D03*
X467500Y40500D03*
X436500Y40500D03*
X467500Y938500D03*
X436500Y938500D03*
X467500Y847700D03*
X436500Y847700D03*
X467500Y756900D03*
X436500Y756900D03*
X467500Y666100D03*
X436500Y666100D03*
X467500Y580300D03*
X436500Y580300D03*
X467500Y489500D03*
X436500Y489500D03*
X467500Y403700D03*
X436500Y403700D03*
X467500Y312900D03*
X436500Y312900D03*
X556000Y1029300D03*
X525000Y1029300D03*
X556000Y222100D03*
X525000Y222100D03*
X556000Y131300D03*
X525000Y131300D03*
X556000Y40500D03*
X525000Y40500D03*
X556000Y938500D03*
X525000Y938500D03*
X556000Y847700D03*
X525000Y847700D03*
X556000Y756900D03*
X525000Y756900D03*
X556000Y666100D03*
X525000Y666100D03*
X556000Y580300D03*
X525000Y580300D03*
X556000Y489500D03*
X525000Y489500D03*
X556000Y403700D03*
X525000Y403700D03*
X556000Y312900D03*
X525000Y312900D03*
X644500Y1029300D03*
X613500Y1029300D03*
X644500Y222100D03*
X613500Y222100D03*
X644500Y131300D03*
X613500Y131300D03*
X644500Y40500D03*
X613500Y40500D03*
X644500Y938500D03*
X613500Y938500D03*
X644500Y847700D03*
X613500Y847700D03*
X644500Y756900D03*
X613500Y756900D03*
X644500Y666100D03*
X613500Y666100D03*
X644500Y580300D03*
X613500Y580300D03*
X644500Y489500D03*
X613500Y489500D03*
X644500Y403700D03*
X613500Y403700D03*
X644500Y312900D03*
X613500Y312900D03*
X738000Y1029300D03*
X707000Y1029300D03*
X738000Y222100D03*
X707000Y222100D03*
X738000Y131300D03*
X707000Y131300D03*
X738000Y40500D03*
X707000Y40500D03*
X738000Y938500D03*
X707000Y938500D03*
X738000Y847700D03*
X707000Y847700D03*
X738000Y756900D03*
X707000Y756900D03*
X738000Y666100D03*
X707000Y666100D03*
X738000Y580300D03*
X707000Y580300D03*
X738000Y489500D03*
X707000Y489500D03*
X738000Y403700D03*
X707000Y403700D03*
X738000Y312900D03*
X707000Y312900D03*
D11*
X40000Y1088000D03*
X40000Y1032000D03*
X40000Y278000D03*
X40000Y222000D03*
X40000Y188000D03*
X40000Y132000D03*
X40000Y98000D03*
X40000Y42000D03*
X40000Y998000D03*
X40000Y942000D03*
X40000Y908000D03*
X40000Y852000D03*
X40000Y818000D03*
X40000Y762000D03*
X40000Y728000D03*
X40000Y672000D03*
X40000Y638000D03*
X40000Y582000D03*
X40000Y548000D03*
X40000Y492000D03*
X40000Y458000D03*
X40000Y402000D03*
X40000Y368000D03*
X40000Y312000D03*
M02*
