M48
;GenerationSoftware,Autodesk,EAGLE,9.6.2*%
;CreationDate,2021-08-18T19:16:19Z*%
FMAT,2
ICI,OFF
METRIC,TZ,000.000
T2C0.350
T1C1.016
%
G90
M71
T1
X40970Y112000
X50650Y112000
X65890Y112000
X63350Y112000
X60810Y112000
X58270Y112000
X55730Y112000
X53190Y112000
X48110Y112000
X13030Y112000
X15570Y112000
X18110Y112000
X20650Y112000
X23190Y112000
X25730Y112000
X28270Y112000
X30810Y112000
X33350Y112000
X35890Y112000
X38430Y112000
T2
X32614Y58064
X41758Y58064
X50749Y58064
X59741Y58064
X68732Y58064
X7620Y56388
X18288Y84734
X24079Y84734
X32614Y84734
X41758Y84734
X50749Y84734
X59741Y84734
X68732Y84734
X8534Y86106
X18288Y66599
X24079Y66599
X32614Y66599
X41758Y66599
X50749Y66599
X59741Y66599
X68732Y66599
X7620Y68275
X18288Y48920
X24079Y48920
X32614Y48920
X41758Y48920
X50749Y48920
X59741Y48920
X68732Y48920
X7620Y50597
X18288Y40386
X24079Y40386
X32614Y40386
X41758Y40386
X41758Y75743
X59741Y40386
X68732Y40386
X8992Y40386
X18288Y31394
X24079Y31394
X32614Y31394
X41758Y31394
X50749Y31394
X59741Y31394
X68732Y31394
X8992Y31394
X18288Y22250
X24079Y22250
X32614Y22250
X41758Y22250
X50749Y22250
X59741Y22250
X68732Y22250
X8992Y22250
X13564Y104851
X4877Y83363
X19050Y107747
X4267Y74371
X22098Y108356
X2743Y65380
X42367Y112776
X18288Y103022
X30937Y109576
X2134Y38710
X2591Y104699
X2591Y20269
X5486Y11278
X32004Y101651
X24079Y103022
X7620Y101194
X18288Y93878
X24079Y93878
X41758Y93878
X50749Y93878
X50749Y40386
X59741Y93878
X68732Y93878
X7315Y92202
X18288Y75743
X24079Y75743
X32614Y75743
X50749Y75743
X59741Y75743
X68732Y75743
X7620Y77419
X18288Y58064
X24079Y58064
X12192Y92812
M30